<svg width="34" height="34" viewBox="0 0 34 34" fill="none" xmlns="http://www.w3.org/2000/svg">
<path d="M24.0833 2.83333H9.91667C7.50833 2.83333 5.66667 4.675 5.66667 7.08333V15.5833H17.85L14.5917 12.325C14.025 11.7583 14.025 10.9083 14.5917 10.3417C15.1583 9.775 16.0083 9.775 16.575 10.3417L22.2417 16.0083C22.8083 16.575 22.8083 17.425 22.2417 17.9917L16.575 23.6583C16.0083 24.225 15.1583 24.225 14.5917 23.6583C14.025 23.0917 14.025 22.2417 14.5917 21.675L17.85 18.4167H5.66667V26.9167C5.66667 29.325 7.50833 31.1667 9.91667 31.1667H24.0833C26.4917 31.1667 28.3333 29.325 28.3333 26.9167V7.08333C28.3333 4.675 26.4917 2.83333 24.0833 2.83333Z" fill="black"/>
</svg>
