<svg width="30" height="30" viewBox="0 0 30 30" fill="none" xmlns="http://www.w3.org/2000/svg">
<path d="M15.0166 10.9691C14.0238 10.9691 13.0941 11.3543 12.3902 12.0582C11.6896 12.7621 11.3012 13.6918 11.3012 14.6846C11.3012 15.6773 11.6896 16.607 12.3902 17.3109C13.0941 18.0115 14.0238 18.4 15.0166 18.4C16.0094 18.4 16.9391 18.0115 17.643 17.3109C18.3436 16.607 18.732 15.6773 18.732 14.6846C18.732 13.6918 18.3436 12.7621 17.643 12.0582C17.2992 11.7118 16.8899 11.4371 16.4391 11.2501C15.9882 11.0632 15.5047 10.9676 15.0166 10.9691V10.9691ZM28.7062 18.7885L26.5348 16.9324C26.6377 16.3016 26.6908 15.6574 26.6908 15.0166C26.6908 14.3758 26.6377 13.7283 26.5348 13.1008L28.7062 11.2447C28.8703 11.1043 28.9877 10.9173 29.0429 10.7085C29.098 10.4997 29.0883 10.2791 29.015 10.076L28.9852 9.98965C28.3875 8.3185 27.4921 6.76946 26.3422 5.41758L26.2824 5.34785C26.1428 5.18367 25.9567 5.06565 25.7486 5.00934C25.5406 4.95303 25.3204 4.96108 25.117 5.03242L22.4209 5.99199C21.4248 5.17519 20.3158 4.53105 19.1139 4.08281L18.5926 1.26387C18.5532 1.05151 18.4502 0.85614 18.2972 0.703722C18.1442 0.551305 17.9484 0.449051 17.7359 0.410546L17.6463 0.393945C15.9197 0.0818352 14.1002 0.0818352 12.3736 0.393945L12.284 0.410546C12.0715 0.449051 11.8757 0.551305 11.7227 0.703722C11.5697 0.85614 11.4667 1.05151 11.4273 1.26387L10.9027 4.09609C9.71216 4.54791 8.60307 5.19049 7.61895 5.99863L4.90293 5.03242C4.69961 4.96051 4.47923 4.95217 4.27106 5.00851C4.06289 5.06486 3.87679 5.18321 3.7375 5.34785L3.67773 5.41758C2.52988 6.7709 1.63465 8.31956 1.03477 9.98965L1.00488 10.076C0.855469 10.491 0.97832 10.9559 1.31367 11.2447L3.51172 13.1207C3.40879 13.7449 3.35898 14.3824 3.35898 15.0133C3.35898 15.6508 3.40879 16.2883 3.51172 16.9059L1.32031 18.7818C1.15627 18.9223 1.03887 19.1093 0.983712 19.3181C0.928554 19.5268 0.938254 19.7475 1.01152 19.9506L1.04141 20.0369C1.64238 21.707 2.52891 23.251 3.68437 24.609L3.74414 24.6787C3.88377 24.8429 4.06988 24.9609 4.27792 25.0172C4.48597 25.0735 4.70619 25.0655 4.90957 24.9941L7.62559 24.0279C8.61504 24.8414 9.71738 25.4855 10.9094 25.9305L11.434 28.7627C11.4733 28.9751 11.5763 29.1704 11.7293 29.3228C11.8823 29.4753 12.0781 29.5775 12.2906 29.616L12.3803 29.6326C14.1238 29.9464 15.9094 29.9464 17.6529 29.6326L17.7426 29.616C17.9551 29.5775 18.1509 29.4753 18.3039 29.3228C18.4569 29.1704 18.5599 28.9751 18.5992 28.7627L19.1205 25.9437C20.3225 25.4922 21.4314 24.8514 22.4275 24.0346L25.1236 24.9941C25.327 25.0661 25.5473 25.0744 25.7555 25.018C25.9637 24.9617 26.1498 24.8434 26.2891 24.6787L26.3488 24.609C27.5043 23.2443 28.3908 21.707 28.9918 20.0369L29.0217 19.9506C29.1645 19.5389 29.0416 19.0773 28.7062 18.7885ZM15.0166 20.5217C11.7926 20.5217 9.17949 17.9086 9.17949 14.6846C9.17949 11.4605 11.7926 8.84746 15.0166 8.84746C18.2406 8.84746 20.8537 11.4605 20.8537 14.6846C20.8537 17.9086 18.2406 20.5217 15.0166 20.5217Z" fill="black"/>
</svg>
